<svg xmlns="http://www.w3.org/2000/svg" viewBox="0 0 180 180" fill="none" shape-rendering="auto" aria-hidden="true"><!-- Generated by DiceBear (https://www.dicebear.com) --><metadata xmlns:rdf="http://www.w3.org/1999/02/22-rdf-syntax-ns#" xmlns:xsi="http://www.w3.org/2001/XMLSchema-instance" xmlns:dc="http://purl.org/dc/elements/1.1/" xmlns:dcterms="http://purl.org/dc/terms/"><rdf:RDF><rdf:Description><dc:title>Bottts</dc:title><dc:creator>Pablo Stanley</dc:creator><dc:source xsi:type="dcterms:URI">https://bottts.com/</dc:source><dcterms:license xsi:type="dcterms:URI">https://bottts.com/</dcterms:license><dc:rights>Remix of “Bottts” (https://bottts.com/) by “Pablo Stanley”, licensed under “Free for personal and commercial use” (https://bottts.com/)</dc:rights></rdf:Description></rdf:RDF></metadata><defs><g id="sides-antenna01-68daef9a"><mask id="sidesAntenna01-a" style="mask-type:luminance"><rect y="31" width="36" height="14" rx="4" fill="white"/><rect x="12" y="14" width="36" height="48" rx="4" fill="white"/><rect x="120" y="28" width="36" height="24" rx="4" fill="white"/><path fill="white" d="M5 11h2v20H5z"/></mask><g mask="url(#sidesAntenna01-a)"><path d="M-6 0h180v76H-6z" fill="#c47a2c"/><path fill="white" fill-opacity=".3" d="M-6 0h180v76H-6z"/><path fill="black" fill-opacity=".1" d="M-6 38h180v38H-6z"/></g><path fill="white" fill-opacity=".4" d="M5 11h2v20H5z"/><circle cx="6" cy="8" r="4" fill="#FFEA8F"/><circle cx="7" cy="7" r="2" fill="white"/></g><g id="top-radar-68daef9a"><mask id="topRadar-a" style="mask-type:luminance"><path fill-rule="evenodd" clip-rule="evenodd" d="M35.8.7A20 20 0 1 0 64.08 29" fill="white"/><circle cx="59.13" cy="5.66" r="4" transform="rotate(45 59.13 5.66)" fill="white"/><path fill="white" d="m56.307 7.077 1.414 1.414-18.384 18.385-1.415-1.414zM39.94 28.71h4v24h-4z"/></mask><g mask="url(#topRadar-a)"><path d="M-8 .6H92v52H-8z" fill="#c47a2c"/><path d="M-8 .6H92v52H-8z" fill="white" fill-opacity=".3"/><path fill-rule="evenodd" clip-rule="evenodd" d="M35.8.7A20 20 0 1 0 64.08 29" fill="white" fill-opacity=".2"/><circle cx="59.13" cy="8" r="5.66" transform="rotate(45 59.13 8)" fill="white" fill-opacity=".8"/></g></g><g id="texture-circuits-68daef9a"><path d="M66 36h49.42a5 5 0 1 1 0 4H62V6h4zm-8-12h-4V6h4z" fill="black" fill-opacity=".1"/><path d="M163 31a5 5 0 0 1 2 9.58V66h19v4h-23V40.58a5 5 0 0 1 2-9.58" fill="white" fill-opacity=".2"/><path d="M157 74h27v4h-31V52h4zm-85 26a5 5 0 0 0-2 9.58V135H51v4h23v-29.42a5 5 0 0 0-2-9.58" fill="black" fill-opacity=".2"/></g><g id="head-round02-68daef9a"><mask id="headRound02-a" style="mask-type:luminance"><path fill-rule="evenodd" clip-rule="evenodd" d="M0 31v-1c.18-.48.4-1.5 1-3 .83-3.06 2.78-6.56 6-10C16.7 6.6 35.17 0 65 0s48.3 6.6 58 17c3.22 3.44 5.17 6.94 6 10 .6 1.5.82 2.52 1 3v40c0-.1-.03.5 0 1a54 54 0 0 1-1 6c-1.19 6-3.4 11.91-7 17-9.72 16.34-27.74 26-57 26s-47.28-9.66-57-26c-3.6-5.1-5.8-11-7-17a54 54 0 0 1-1-6c.03-.45 0-1.32 0-1z" fill="white"/></mask><g mask="url(#headRound02-a)"><path d="M-4-2h138v124H-4z" fill="#c47a2c"/><use transform="translate(-44 -7)" href="#texture-circuits-68daef9a"/></g></g><g id="mouth-diagram-68daef9a"><rect width="68" height="24" rx="5" fill="black" fill-opacity=".2"/><rect x="4" y="4" width="60" height="16" rx="2" fill="black" fill-opacity=".8"/><path d="M5 13h11l2-4 3 7 4-8 2 9 3-11 3 10 3-3h15l3-4 2 7 3-3h4" stroke="#4EFAC9" stroke-width="2" stroke-linecap="round" stroke-linejoin="round"/></g><g id="eyes-sensor-68daef9a"><path d="M28 4a20 20 0 0 1 19.9 18h41.52a5 5 0 1 1 0 4H47.9A20 20 0 1 1 28 4" fill="black" fill-opacity=".2"/><circle cx="94" cy="24" r="2" fill="white"/><circle cx="28" cy="24" r="16" fill="black" fill-opacity=".6"/><circle cx="34" cy="16" r="3" fill="white"/></g><clipPath id="clip-68daef9a"><rect width="180" height="180" rx="0" ry="0"/></clipPath></defs><g clip-path="url(#clip-68daef9a)"><rect width="180" height="180" fill="#f5e6d2"/><use transform="translate(6 66)" href="#sides-antenna01-68daef9a"/><use transform="translate(49 -.6)" href="#top-radar-68daef9a"/><use transform="translate(25 44)" href="#head-round02-68daef9a"/><use transform="translate(56 128)" href="#mouth-diagram-68daef9a"/><use transform="translate(38 76)" href="#eyes-sensor-68daef9a"/></g></svg>